{"title":"Wentworth Season 2 Episode 8 Sins of the Mother WEB-DL","uid":10514620,"size":422366805,"categoryP":"video","categoryS":"tv_shows","magnet":"?xt=urn:btih:8e1d062a0b59bad8a330d2d9ed374d9889bf7828&amp;dn=Wentworth+Season+2+Episode+8+Sins+of+the+Mother+WEB-DL&amp;tr=udp%3A%2F%2Ftracker.openbittorrent.com%3A80&amp;tr=udp%3A%2F%2Fopen.demonii.com%3A1337&amp;tr=udp%3A%2F%2Ftracker.coppersurfer.tk%3A6969&amp;tr=udp%3A%2F%2Fexodus.desync.com%3A6969","seeders":5,"leechers":2,"uploader":"jmanwf","files":1,"time":1404898342,"description":"Original Air-date: July 8, 2014\nWritten by: Timothy Hobart\nDirected by: Pino Amenta\n\n\n\n\nAn isolated and paranoid Franky tries to uncover which inmate is leaking vital information to Ferguson. \n\n\nFormat                                   : MPEG-4\nFormat profile                           : Base Media / Version 2\nCodec ID                                 : mp42\nFile size                                : 403 MiB\nDuration                                 : 45mn 35s\nOverall bit rate mode                    : Variable\nOverall bit rate                         : 1 235 Kbps\nEncoded date                             : UTC 2014-07-09 02:34:07\nTagged date                              : UTC 2014-07-09 03:01:21\nWriting application                      : HandBrake 0.9.9 2013052900\n\nVideo\nID                                       : 1\nFormat                                   : AVC\nFormat/Info                              : Advanced Video Codec\nFormat profile                           : &lt;a class=&quot;__cf_email__&quot; href=&quot;/cdn-cgi/l/email-protection&quot; data-cfemail=&quot;ca82a3ada28a86fee4fb&quot;&gt;[email&amp;#160;protected]&lt;/a&gt;&lt;script cf-hash='f9e31' type=&quot;text/javascript&quot;&gt;\n/* &lt;![CDATA[ */!function(){try{var t=&quot;currentScript&quot;in document?document.currentScript:function(){for(var t=document.getElementsByTagName(&quot;script&quot;),e=t.length;e--;)if(t[e].getAttribute(&quot;cf-hash&quot;))return t[e]}();if(t&amp;&amp;t.previousSibling){var e,r,n,i,c=t.previousSibling,a=c.getAttribute(&quot;data-cfemail&quot;);if(a){for(e=&quot;&quot;,r=parseInt(a.substr(0,2),16),n=2;a.length-n;n+=2)i=parseInt(a.substr(n,2),16)^r,e+=String.fromCharCode(i);e=document.createTextNode(e),c.parentNode.replaceChild(e,c)}}}catch(u){}}();/* ]]&gt; */&lt;/script&gt;\nFormat settings, CABAC                   : Yes\nFormat settings, ReFrames                : 4 frames\nCodec ID                                 : avc1\nCodec ID/Info                            : Advanced Video Coding\nDuration                                 : 45mn 35s\nBit rate                                 : 1 151 Kbps\nWidth                                    : 720 pixels\nHeight                                   : 576 pixels\nDisplay aspect ratio                     : 16:9\nFrame rate mode                          : Variable\nFrame rate                               : 25.000 fps\nMinimum frame rate                       : 7.042 fps\nMaximum frame rate                       : 25.000 fps\nStandard                                 : PAL\nColor space                              : YUV\nChroma subsampling                       : 4:2:0\nBit depth                                : 8 bits\nScan type                                : Progressive\nBits/(Pixel*Frame)                       : 0.111\nStream size                              : 375 MiB (93%)\nWriting library                          : x264 core 130 r2273 b3065e6\n\nEncoded date                             : UTC 2014-07-09 02:34:07\nTagged date                              : UTC 2014-07-09 03:01:19\nColor primaries                          : BT.601 PAL\nTransfer characteristics                 : BT.709\nMatrix coefficients                      : BT.601\n\nAudio\nID                                       : 2\nFormat                                   : AAC\nFormat/Info                              : Advanced Audio Codec\nFormat profile                           : LC\nCodec ID                                 : 40\nDuration                                 : 45mn 34s\nBit rate mode                            : Variable\nBit rate                                 : 80.0 Kbps\nMaximum bit rate                         : 95.4 Kbps\nChannel(s)                               : 2 channels\nChannel positions                        : Front: L R\nSampling rate                            : 48.0 KHz\nCompression mode                         : Lossy\nStream size                              : 26.1 MiB (6%)\nEncoded date                             : UTC 2014-07-09 02:34:07\nTagged date                              : UTC 2014-07-09 03:01:18\n\n","torrent":{"xt":"urn:btih:8e1d062a0b59bad8a330d2d9ed374d9889bf7828","amp;dn":"Wentworth+Season+2+Episode+8+Sins+of+the+Mother+WEB-DL","amp;tr":["udp%3A%2F%2Ftracker.openbittorrent.com%3A80","udp%3A%2F%2Fopen.demonii.com%3A1337","udp%3A%2F%2Ftracker.coppersurfer.tk%3A6969","udp%3A%2F%2Fexodus.desync.com%3A6969"],"infoHash":"8e1d062a0b59bad8a330d2d9ed374d9889bf7828","infoHashBuffer":{"type":"Buffer","data":[142,29,6,42,11,89,186,216,163,48,210,217,237,55,77,152,137,191,120,40]},"announce":[],"urlList":[]}}